<svg width="20" height="20" viewBox="0 0 20 20" fill="none" xmlns="http://www.w3.org/2000/svg">
<path opacity="0.4" d="M1.66699 9.23242C1.70866 11.1808 1.82533 14.5133 1.84199 14.8808C1.90116 15.6666 2.20199 16.4608 2.67033 17.0208C3.32199 17.8066 4.12449 18.1574 5.24366 18.1574C6.79033 18.1658 8.49533 18.1658 10.1512 18.1658C11.8137 18.1658 13.427 18.1658 14.7895 18.1574C15.8928 18.1574 16.7203 17.7974 17.3637 17.0208C17.832 16.4608 18.1328 15.6583 18.1753 14.8808C18.192 14.5716 18.2753 10.9541 18.3253 9.23242H1.66699Z" fill="black" fill-opacity="0.6"/>
<path d="M9.37109 12.8203V13.8986C9.37109 14.2436 9.65109 14.5236 9.99609 14.5236C10.3411 14.5236 10.6211 14.2436 10.6211 13.8986V12.8203C10.6211 12.4753 10.3411 12.1953 9.99609 12.1953C9.65109 12.1953 9.37109 12.4753 9.37109 12.8203Z" fill="black" fill-opacity="0.6"/>
<path fill-rule="evenodd" clip-rule="evenodd" d="M8.50949 12.1313C8.42616 12.4338 8.13533 12.6271 7.82033 12.5855C5.69449 12.2888 3.66283 11.5346 1.94783 10.4021C1.77199 10.2871 1.66699 10.0905 1.66699 9.88047V6.99214C1.66699 5.24214 3.09366 3.8188 4.84783 3.8188H6.48699C6.64366 2.6088 7.66866 1.66797 8.92033 1.66797H11.072C12.3228 1.66797 13.3487 2.6088 13.5053 3.8188H15.1528C16.902 3.8188 18.3253 5.24214 18.3253 6.99214V9.88047C18.3253 10.0905 18.2195 10.2863 18.0453 10.4021C16.327 11.5396 14.287 12.2971 12.147 12.593C12.1178 12.5971 12.0895 12.5988 12.0612 12.5988C11.7787 12.5988 11.5262 12.408 11.4553 12.128C11.287 11.4646 10.6845 11.0005 9.99199 11.0005C9.29033 11.0005 8.69449 11.4546 8.50949 12.1313ZM11.072 2.91797H8.92033C8.35949 2.91797 7.89116 3.3013 7.75116 3.8188H12.2403C12.1003 3.3013 11.632 2.91797 11.072 2.91797Z" fill="black" fill-opacity="0.6"/>
</svg>
