<?xml version="1.0" standalone="no"?><!DOCTYPE svg PUBLIC "-//W3C//DTD SVG 1.1//EN" "http://www.w3.org/Graphics/SVG/1.1/DTD/svg11.dtd"><svg t="1727161121569" class="icon" viewBox="0 0 1024 1024" version="1.1" xmlns="http://www.w3.org/2000/svg" p-id="1482" xmlns:xlink="http://www.w3.org/1999/xlink" width="200" height="200"><path d="M413.6 35.43H120.52a70.08 70.08 0 0 0-70 70v316.89a70.08 70.08 0 0 0 70 70H413.6a70.08 70.08 0 0 0 70-70V105.43a70.08 70.08 0 0 0-70-70z m10 386.89a10 10 0 0 1-10 10H120.52a10 10 0 0 1-10-10V105.43a10 10 0 0 1 10-10H413.6a10 10 0 0 1 10 10zM413.6 531.68H120.52a70.08 70.08 0 0 0-70 70v316.89a70.08 70.08 0 0 0 70 70H413.6a70.08 70.08 0 0 0 70-70V601.68a70.08 70.08 0 0 0-70-70z m10 386.89a10 10 0 0 1-10 10H120.52a10 10 0 0 1-10-10V601.68a10 10 0 0 1 10-10H413.6a10 10 0 0 1 10 10zM903.48 531.68H610.4a70.08 70.08 0 0 0-70 70v316.89a70.08 70.08 0 0 0 70 70h293.08a70.08 70.08 0 0 0 70-70V601.68a70.08 70.08 0 0 0-70-70z m10 386.89a10 10 0 0 1-10 10H610.4a10 10 0 0 1-10-10V601.68a10 10 0 0 1 10-10h293.08a10 10 0 0 1 10 10z" fill="#040000" p-id="1483"></path><path d="M842.83 302.46a149.88 149.88 0 0 0 8.75-50.58c0-83-67.51-150.51-150.5-150.51s-150.51 67.52-150.51 150.51 67.52 150.5 150.51 150.5a150.1 150.1 0 0 0 110.64-48.59l105.35 67.82a30 30 0 0 0 32.47-50.45z m-141.75 39.92a90.51 90.51 0 1 1 90.5-90.5 90.61 90.61 0 0 1-90.5 90.5z" p-id="1484"></path></svg>